# xmcd
# Copyright (C) 1995-1998 Ti Kan
#
# Track frame offsets:
#       150
#       11460
#       25227
#       43135
#       62354
#       86563
#       99646
#       115503
#       135651
#       160893
#
# Disc length: 2412 seconds
#
# Revision: 0
# Processed by: cddbd v1.5.2PL0 Copyright (c) Steve Scherf et al.
# Submitted via: CD-Transfer v1.0
#
DISCID=73096a0a
DTITLE=Acoustic Ladyland - Pete Wareham
DYEAR=09
DGENRE=
TTITLE0=Sport Mode
TTITLE1=Glasto
TTITLE2=Living With A Tiger
TTITLE3=Gratitude
TTITLE4=Have Another Go
TTITLE5=Death By Platitude
TTITLE6=Not So
TTITLE7=Mighty Q, The
TTITLE8=Worry
TTITLE9=You And I
EXTD=
EXTT0=
EXTT1=
EXTT2=
EXTT3=
EXTT4=
EXTT5=
EXTT6=
EXTT7=
EXTT8=
EXTT9=
PLAYORDER=
